<svg width="85" height="23" viewBox="0 0 85 23" fill="none" xmlns="http://www.w3.org/2000/svg">
<g clip-path="url(#clip0_1_3)">
<path d="M16.3748 9.84427H9.23297C9.14446 9.84431 9.0596 9.87952 8.99701 9.94214C8.93443 10.0048 8.89925 10.0897 8.8992 10.1783V13.6725C8.89925 13.7611 8.93441 13.8461 8.99698 13.9088C9.05955 13.9715 9.14442 14.0068 9.23297 14.007H12.019V18.3481C12.019 18.3481 11.3934 18.5617 9.66389 18.5617C7.62343 18.5617 4.77297 17.8154 4.77297 11.5431C4.77297 5.26959 7.74111 4.44398 10.5277 4.44398C12.9398 4.44398 13.979 4.86918 14.6401 5.07373C14.8479 5.13748 15.0401 4.93063 15.0401 4.74592L15.8368 1.37C15.8368 1.28375 15.8076 1.17962 15.7092 1.10896C15.4407 0.917345 13.8025 0 9.66389 0C4.89614 0 0.00556946 2.03002 0.00556946 11.7877C0.00556946 21.5461 5.60491 23 10.3233 23C14.2301 23 16.6001 21.3293 16.6001 21.3293C16.6977 21.2751 16.7084 21.1386 16.7084 21.0759V10.1781C16.7084 9.99391 16.559 9.84427 16.3748 9.84427ZM53.1809 1.16917C53.1812 1.12532 53.1729 1.08182 53.1565 1.04118C53.14 1.00054 53.1157 0.963556 53.0849 0.932356C53.0541 0.901156 53.0174 0.876353 52.977 0.859371C52.9366 0.84239 52.8932 0.833565 52.8494 0.833403H48.8279C48.784 0.833565 48.7406 0.84238 48.7001 0.859342C48.6596 0.876304 48.6228 0.90108 48.5919 0.932259C48.561 0.963438 48.5365 1.00041 48.5198 1.04106C48.5032 1.08171 48.4947 1.12524 48.4949 1.16917L48.4959 8.94587H42.2278V1.16917C42.2281 1.1253 42.2198 1.08179 42.2033 1.04115C42.1868 1.00051 42.1624 0.96353 42.1316 0.932334C42.1008 0.901139 42.0641 0.87634 42.0236 0.859363C41.9832 0.842386 41.9398 0.833565 41.896 0.833403H37.8749C37.7863 0.833871 37.7016 0.869503 37.6393 0.932467C37.577 0.995431 37.5423 1.08057 37.5427 1.16917V22.2263C37.5427 22.4119 37.6919 22.5629 37.8749 22.5629H41.896C42.0799 22.5629 42.2278 22.4117 42.2278 22.2263V13.2193H48.4959L48.485 22.2263C48.485 22.4119 48.6343 22.5629 48.8182 22.5629H52.849C53.0333 22.5629 53.1805 22.4117 53.1809 22.2263V1.16917ZM23.9631 3.93254C23.9631 2.48338 22.8022 1.31244 21.3699 1.31244C19.9391 1.31244 18.7773 2.48338 18.7773 3.93254C18.7773 5.37992 19.9391 6.55387 21.3699 6.55387C22.8022 6.55387 23.9631 5.37992 23.9631 3.93254ZM23.6755 17.7844V8.06448C23.6757 7.97586 23.6408 7.89077 23.5785 7.82786C23.5161 7.76495 23.4314 7.72935 23.3428 7.72889H19.3342C19.1504 7.72889 18.9858 7.91873 18.9858 8.10344V22.029C18.9858 22.4384 19.2406 22.5599 19.5705 22.5599H23.1821C23.5783 22.5599 23.6755 22.3651 23.6755 22.0226V17.7844ZM68.4633 7.76059H64.4728C64.2898 7.76059 64.1408 7.91147 64.1408 8.09724V18.4221C64.1408 18.4221 63.1269 19.1645 61.6882 19.1645C60.2494 19.1645 59.8677 18.5112 59.8677 17.1014V8.09724C59.8677 7.91147 59.7188 7.76059 59.5359 7.76059H55.4857C55.3031 7.76059 55.1532 7.91147 55.1532 8.09724V17.783C55.1532 21.9706 57.4855 22.995 60.6941 22.995C63.3262 22.995 65.4482 21.54 65.4482 21.54C65.4482 21.54 65.5493 22.3067 65.595 22.3977C65.6408 22.4884 65.7599 22.5799 65.8886 22.5799L68.4652 22.5686C68.6479 22.5686 68.7978 22.4174 68.7978 22.2325L68.7963 8.09742C68.7963 7.91147 68.6472 7.76059 68.4633 7.76059ZM77.7958 19.1518C76.4117 19.1096 75.4729 18.4809 75.4729 18.4809V11.8128C75.4729 11.8128 76.399 11.2447 77.5353 11.1431C78.9723 11.0143 80.3569 11.4487 80.3569 14.8789C80.3571 18.4962 79.7322 19.21 77.7958 19.1518ZM79.3698 7.28775C77.1033 7.28775 75.5617 8.29966 75.5617 8.29966V1.16935C75.5617 0.983399 75.4133 0.833403 75.2299 0.833403H71.1973C71.1534 0.833612 71.11 0.842468 71.0696 0.859466C71.0291 0.876464 70.9924 0.901271 70.9616 0.932469C70.9307 0.963667 70.9063 1.00064 70.8897 1.04129C70.8731 1.08193 70.8647 1.12545 70.865 1.16935V22.2263C70.865 22.4119 71.014 22.5629 71.1978 22.5629H73.9959C74.1217 22.5629 74.2171 22.4979 74.2876 22.3842C74.3571 22.2711 74.4574 21.4134 74.4574 21.4134C74.4574 21.4134 76.1065 22.9772 79.228 22.9772C82.8927 22.9772 84.9944 21.117 84.9944 14.6265C84.9944 8.13584 81.6378 7.28775 79.3698 7.28775ZM35.2329 7.72712H32.2164L32.2118 3.73915C32.2118 3.58827 32.1341 3.51282 31.9598 3.51282H27.8492C27.6894 3.51282 27.6035 3.58331 27.6035 3.73685V7.85799C27.6035 7.85799 25.5436 8.35544 25.4043 8.39582C25.3349 8.41597 25.2738 8.45816 25.2304 8.51603C25.1869 8.5739 25.1634 8.64433 25.1635 8.71671V11.3063C25.1635 11.4927 25.3121 11.6425 25.496 11.6425H27.6035V17.8723C27.6035 22.4997 30.847 22.9543 33.0358 22.9543C34.0359 22.9543 35.2322 22.6331 35.4297 22.5597C35.5491 22.5158 35.6185 22.392 35.6185 22.2578L35.6219 19.4091C35.6219 19.2231 35.4651 19.0731 35.2885 19.0731C35.1127 19.0731 34.6631 19.1447 34.2001 19.1447C32.7185 19.1447 32.2164 18.4553 32.2164 17.5629L32.2163 11.6423H35.2329C35.4168 11.6423 35.5656 11.4923 35.5656 11.3062V8.06235C35.5658 8.01846 35.5574 7.97497 35.5407 7.93435C35.5241 7.89373 35.4997 7.85679 35.4688 7.82565C35.4379 7.79451 35.4011 7.76978 35.3606 7.75287C35.3202 7.73596 35.2768 7.72721 35.2329 7.72712Z" fill="#121110"/>
</g>
<defs>
<clipPath id="clip0_1_3">
<rect width="85" height="23" fill="white"/>
</clipPath>
</defs>
</svg>
