<svg width="18" height="18" viewBox="0 0 18 18" fill="none" xmlns="http://www.w3.org/2000/svg">
<path d="M16 0H2C1.46957 0 0.960859 0.210714 0.585786 0.585786C0.210714 0.960859 0 1.46957 0 2V16C0 16.5304 0.210714 17.0391 0.585786 17.4142C0.960859 17.7893 1.46957 18 2 18H16C16.5304 18 17.0391 17.7893 17.4142 17.4142C17.7893 17.0391 18 16.5304 18 16V2C18 1.46957 17.7893 0.960859 17.4142 0.585786C17.0391 0.210714 16.5304 0 16 0ZM16 16H2V2H16V16ZM8 13H7C5.39 13 3 11.94 3 9C3 6.07 5.39 5 7 5H8V7H7C6.54 7 5 7.17 5 9C5 10.9 6.67 11 7 11H8V13ZM11 13H10V11H11C11.46 11 13 10.83 13 9C13 7.1 11.33 7 11 7H10V5H11C12.61 5 15 6.07 15 9C15 11.94 12.61 13 11 13ZM12 10H6V8H12V10Z" fill="white"/>
</svg>
